<svg xmlns="http://www.w3.org/2000/svg" xmlns:xlink="http://www.w3.org/1999/xlink" width="500" zoomAndPan="magnify" viewBox="0 0 375 374.999991" height="500" preserveAspectRatio="xMidYMid meet" version="1.0"><defs><clipPath id="2fe80565c7"><path d="M 0.902344 134.824219 L 88.375 134.824219 L 88.375 178.5625 L 0.902344 178.5625 Z M 0.902344 134.824219 " clip-rule="nonzero"/></clipPath><clipPath id="e0736c17d3"><path d="M 88.359375 156.609375 C 88.359375 168.636719 78.609375 178.390625 66.574219 178.390625 L 23.050781 178.390625 C 11.035156 178.390625 1.078125 168.78125 0.992188 156.773438 C 0.902344 144.664062 10.6875 134.824219 22.769531 134.824219 L 66.574219 134.824219 C 78.601562 134.824219 88.359375 144.578125 88.359375 156.609375 " clip-rule="nonzero"/></clipPath><clipPath id="42b8a461aa"><path d="M 0.902344 0.824219 L 88.375 0.824219 L 88.375 44.519531 L 0.902344 44.519531 Z M 0.902344 0.824219 " clip-rule="nonzero"/></clipPath><clipPath id="f44875c19b"><path d="M 88.359375 22.609375 C 88.359375 34.636719 78.609375 44.390625 66.574219 44.390625 L 23.050781 44.390625 C 11.035156 44.390625 1.078125 34.78125 0.992188 22.773438 C 0.902344 10.664062 10.6875 0.824219 22.769531 0.824219 L 66.574219 0.824219 C 78.601562 0.824219 88.359375 10.578125 88.359375 22.609375 " clip-rule="nonzero"/></clipPath><clipPath id="a36d1c551c"><rect x="0" width="89" y="0" height="45"/></clipPath><clipPath id="512c4431ff"><path d="M 39.210938 42.109375 L 88.355469 42.109375 L 88.355469 122.21875 L 39.210938 122.21875 Z M 39.210938 42.109375 " clip-rule="nonzero"/></clipPath><clipPath id="91c397ec0a"><path d="M 88.355469 77.183594 L 88.355469 122.066406 L 45.714844 79.425781 C 37.214844 70.917969 37.214844 57.128906 45.714844 48.621094 C 54.21875 40.113281 68.019531 40.113281 76.523438 48.613281 C 84.097656 56.1875 88.355469 66.46875 88.355469 77.183594 " clip-rule="nonzero"/></clipPath><clipPath id="2aa3059a17"><path d="M 0.210938 0.109375 L 49.355469 0.109375 L 49.355469 80.121094 L 0.210938 80.121094 Z M 0.210938 0.109375 " clip-rule="nonzero"/></clipPath><clipPath id="7df1bdc3ad"><path d="M 49.355469 35.183594 L 49.355469 80.066406 L 6.714844 37.425781 C -1.785156 28.917969 -1.785156 15.128906 6.714844 6.621094 C 15.21875 -1.886719 29.019531 -1.886719 37.523438 6.613281 C 45.097656 14.1875 49.355469 24.46875 49.355469 35.183594 " clip-rule="nonzero"/></clipPath><clipPath id="576b2a6150"><rect x="0" width="50" y="0" height="81"/></clipPath><clipPath id="80cf3128ab"><path d="M 39.210938 191.148438 L 88.355469 191.148438 L 88.355469 271 L 39.210938 271 Z M 39.210938 191.148438 " clip-rule="nonzero"/></clipPath><clipPath id="48e0dad599"><path d="M 88.355469 191.148438 L 88.355469 236.023438 C 88.355469 246.738281 84.097656 257.019531 76.523438 264.59375 C 68.019531 273.097656 54.230469 273.097656 45.714844 264.585938 C 37.199219 256.078125 37.214844 242.292969 45.714844 233.789062 Z M 88.355469 191.148438 " clip-rule="nonzero"/></clipPath><clipPath id="cec479bdc6"><path d="M 0.210938 0.148438 L 49.355469 0.148438 L 49.355469 80 L 0.210938 80 Z M 0.210938 0.148438 " clip-rule="nonzero"/></clipPath><clipPath id="2dd76c8a99"><path d="M 49.355469 0.148438 L 49.355469 45.023438 C 49.355469 55.738281 45.097656 66.019531 37.523438 73.59375 C 29.019531 82.097656 15.230469 82.097656 6.714844 73.585938 C -1.800781 65.078125 -1.785156 51.292969 6.714844 42.789062 Z M 49.355469 0.148438 " clip-rule="nonzero"/></clipPath><clipPath id="14e8c49ea3"><rect x="0" width="50" y="0" height="80"/></clipPath><clipPath id="38dce4ba80"><path d="M 131.917969 3.796875 L 175.855469 3.796875 L 175.855469 86 L 131.917969 86 Z M 131.917969 3.796875 " clip-rule="nonzero"/></clipPath><clipPath id="653d84a4fe"><path d="M 175.488281 25.949219 C 175.488281 36.484375 171.304688 46.589844 163.851562 54.042969 L 131.921875 85.972656 L 131.921875 25.667969 C 131.921875 13.585938 141.769531 3.796875 153.875 3.890625 C 165.886719 3.980469 175.488281 13.9375 175.488281 25.949219 " clip-rule="nonzero"/></clipPath><clipPath id="e32f9a3345"><path d="M 0.921875 0.796875 L 44.601562 0.796875 L 44.601562 83 L 0.921875 83 Z M 0.921875 0.796875 " clip-rule="nonzero"/></clipPath><clipPath id="0e76671518"><path d="M 44.488281 22.949219 C 44.488281 33.484375 40.304688 43.589844 32.851562 51.042969 L 0.921875 82.972656 L 0.921875 22.667969 C 0.921875 10.585938 10.769531 0.796875 22.875 0.890625 C 34.886719 0.980469 44.488281 10.9375 44.488281 22.949219 " clip-rule="nonzero"/></clipPath><clipPath id="529e4d81f9"><rect x="0" width="45" y="0" height="83"/></clipPath><clipPath id="744cdf4d44"><path d="M 131.917969 227.128906 L 175.855469 227.128906 L 175.855469 309.507812 L 131.917969 309.507812 Z M 131.917969 227.128906 " clip-rule="nonzero"/></clipPath><clipPath id="f0aedf210a"><path d="M 163.65625 258.96875 C 171.238281 266.542969 175.488281 276.824219 175.488281 287.539062 C 175.488281 298.734375 167.035156 307.957031 156.160156 309.179688 C 156.160156 309.179688 156.15625 309.1875 156.148438 309.179688 C 155.332031 309.191406 154.519531 309.199219 153.707031 309.199219 C 152.894531 309.199219 152.082031 309.191406 151.261719 309.179688 C 151.257812 309.1875 151.25 309.179688 151.25 309.179688 C 140.375 307.964844 131.921875 298.742188 131.921875 287.542969 L 131.921875 227.234375 Z M 163.65625 258.96875 " clip-rule="nonzero"/></clipPath><clipPath id="4dd1d89691"><path d="M 0.921875 0.128906 L 44.601562 0.128906 L 44.601562 82.320312 L 0.921875 82.320312 Z M 0.921875 0.128906 " clip-rule="nonzero"/></clipPath><clipPath id="e221367a9b"><path d="M 32.65625 31.96875 C 40.238281 39.542969 44.488281 49.824219 44.488281 60.539062 C 44.488281 71.734375 36.035156 80.957031 25.160156 82.179688 C 25.160156 82.179688 25.15625 82.1875 25.148438 82.179688 C 24.332031 82.191406 23.519531 82.199219 22.707031 82.199219 C 21.894531 82.199219 21.082031 82.191406 20.261719 82.179688 C 20.257812 82.1875 20.25 82.179688 20.25 82.179688 C 9.375 80.964844 0.921875 71.742188 0.921875 60.542969 L 0.921875 0.234375 Z M 32.65625 31.96875 " clip-rule="nonzero"/></clipPath><clipPath id="8e18cf9cbb"><rect x="0" width="45" y="0" height="83"/></clipPath><clipPath id="e68cca6720"><path d="M 131.917969 42.238281 L 306.4375 42.238281 L 306.4375 271 L 131.917969 271 Z M 131.917969 42.238281 " clip-rule="nonzero"/></clipPath><clipPath id="af0dd7c5e5"><path d="M 306.390625 155.457031 C 307.042969 167.980469 296.804688 178.390625 284.265625 178.390625 L 206.484375 178.390625 C 206.417969 178.390625 206.378906 178.472656 206.429688 178.523438 L 261.699219 233.789062 C 270.203125 242.289062 270.203125 256.085938 261.695312 264.59375 C 253.226562 273.054688 239.539062 273.101562 231.023438 264.726562 C 230.972656 264.683594 230.929688 264.640625 230.886719 264.59375 L 230.882812 264.59375 C 230.832031 264.542969 230.789062 264.5 230.746094 264.460938 L 175.488281 209.195312 L 175.488281 209.1875 L 153.710938 187.410156 L 153.707031 187.410156 L 144.6875 178.390625 L 144.683594 178.390625 L 138.300781 172.003906 C 134.21875 167.917969 131.921875 162.382812 131.921875 156.605469 C 131.921875 150.828125 134.21875 145.292969 138.300781 141.207031 L 144.683594 134.820312 L 153.707031 125.800781 L 175.488281 104.015625 L 230.757812 48.75 L 230.894531 48.625 L 231.027344 48.488281 C 239.542969 40.113281 253.234375 40.164062 261.699219 48.628906 C 270.207031 57.132812 270.207031 70.925781 261.707031 79.429688 L 206.433594 134.699219 C 206.386719 134.75 206.421875 134.835938 206.488281 134.835938 L 284.644531 134.835938 C 296.285156 134.835938 305.792969 143.972656 306.390625 155.46875 " clip-rule="nonzero"/></clipPath><clipPath id="2aec6734a3"><path d="M 0.921875 0.238281 L 175.4375 0.238281 L 175.4375 229 L 0.921875 229 Z M 0.921875 0.238281 " clip-rule="nonzero"/></clipPath><clipPath id="9d103ce832"><path d="M 175.390625 113.457031 C 176.042969 125.980469 165.804688 136.390625 153.265625 136.390625 L 75.484375 136.390625 C 75.417969 136.390625 75.378906 136.472656 75.429688 136.523438 L 130.699219 191.789062 C 139.203125 200.289062 139.203125 214.085938 130.695312 222.59375 C 122.226562 231.054688 108.539062 231.101562 100.023438 222.726562 C 99.972656 222.683594 99.929688 222.640625 99.886719 222.59375 L 99.882812 222.59375 C 99.832031 222.542969 99.789062 222.5 99.746094 222.460938 L 44.488281 167.195312 L 44.488281 167.1875 L 22.710938 145.410156 L 22.707031 145.410156 L 13.6875 136.390625 L 13.683594 136.390625 L 7.300781 130.003906 C 3.21875 125.917969 0.921875 120.382812 0.921875 114.605469 C 0.921875 108.828125 3.21875 103.292969 7.300781 99.207031 L 13.683594 92.820312 L 22.707031 83.800781 L 44.488281 62.015625 L 99.757812 6.75 L 99.894531 6.625 L 100.027344 6.488281 C 108.542969 -1.886719 122.234375 -1.835938 130.699219 6.628906 C 139.207031 15.132812 139.207031 28.925781 130.707031 37.429688 L 75.433594 92.699219 C 75.386719 92.75 75.421875 92.835938 75.488281 92.835938 L 153.644531 92.835938 C 165.285156 92.835938 174.792969 101.972656 175.390625 113.46875 " clip-rule="nonzero"/></clipPath><clipPath id="e9006fe483"><rect x="0" width="176" y="0" height="229"/></clipPath><clipPath id="018e44ab91"><rect x="0" width="311" y="0" height="313"/></clipPath></defs><rect x="-37.5" width="450" fill="#ffffff" y="-37.499999" height="449.999989" fill-opacity="1"/><rect x="-37.5" width="450" fill="#ffffff" y="-37.499999" height="449.999989" fill-opacity="1"/><g transform="matrix(1, 0, 0, 1, 32, 31)"><g clip-path="url(#018e44ab91)"><g clip-path="url(#2fe80565c7)"><g clip-path="url(#e0736c17d3)"><g transform="matrix(1, 0, 0, 1, -0.000000000000007105, 134)"><g clip-path="url(#a36d1c551c)"><g clip-path="url(#42b8a461aa)"><g clip-path="url(#f44875c19b)"><path fill="#08676e" d="M 0.902344 0.824219 L 88.375 0.824219 L 88.375 44.390625 L 0.902344 44.390625 Z M 0.902344 0.824219 " fill-opacity="1" fill-rule="nonzero"/></g></g></g></g></g></g><g clip-path="url(#512c4431ff)"><g clip-path="url(#91c397ec0a)"><g transform="matrix(1, 0, 0, 1, 39, 42)"><g clip-path="url(#576b2a6150)"><g clip-path="url(#2aa3059a17)"><g clip-path="url(#7df1bdc3ad)"><path fill="#2dcf42" d="M -1.785156 -1.886719 L 49.355469 -1.886719 L 49.355469 80.019531 L -1.785156 80.019531 Z M -1.785156 -1.886719 " fill-opacity="1" fill-rule="nonzero"/></g></g></g></g></g></g><g clip-path="url(#80cf3128ab)"><g clip-path="url(#48e0dad599)"><g transform="matrix(1, 0, 0, 1, 39, 191)"><g clip-path="url(#14e8c49ea3)"><g clip-path="url(#cec479bdc6)"><g clip-path="url(#2dd76c8a99)"><path fill="#efd109" d="M -1.785156 0.148438 L 49.355469 0.148438 L 49.355469 82.058594 L -1.785156 82.058594 Z M -1.785156 0.148438 " fill-opacity="1" fill-rule="nonzero"/></g></g></g></g></g></g><g clip-path="url(#38dce4ba80)"><g clip-path="url(#653d84a4fe)"><g transform="matrix(1, 0, 0, 1, 131, 3)"><g clip-path="url(#529e4d81f9)"><g clip-path="url(#e32f9a3345)"><g clip-path="url(#0e76671518)"><rect x="-299.5" width="648" fill="#e01d5b" y="-170.499997" height="647.999984" fill-opacity="1"/></g></g></g></g></g></g><g clip-path="url(#744cdf4d44)"><g clip-path="url(#f0aedf210a)"><g transform="matrix(1, 0, 0, 1, 131, 227)"><g clip-path="url(#8e18cf9cbb)"><g clip-path="url(#4dd1d89691)"><g clip-path="url(#e221367a9b)"><rect x="-299.5" width="648" fill="#2bb1eb" y="-394.499997" height="647.999984" fill-opacity="1"/></g></g></g></g></g></g><g clip-path="url(#e68cca6720)"><g clip-path="url(#af0dd7c5e5)"><g transform="matrix(1, 0, 0, 1, 131, 42)"><g clip-path="url(#e9006fe483)"><g clip-path="url(#2aec6734a3)"><g clip-path="url(#9d103ce832)"><rect x="-299.5" width="648" fill="#08676e" y="-209.499997" height="647.999984" fill-opacity="1"/></g></g></g></g></g></g></g></g></svg>