<svg xmlns="http://www.w3.org/2000/svg" xmlns:xlink="http://www.w3.org/1999/xlink" width="250" zoomAndPan="magnify" viewBox="0 0 187.5 74.999997" height="100" preserveAspectRatio="xMidYMid meet" version="1.0"><defs><g/><clipPath id="36b8cddbb1"><rect x="0" width="116" y="0" height="64"/></clipPath><clipPath id="b5389dce26"><path d="M 140 12 L 152 12 L 152 25 L 140 25 Z M 140 12 " clip-rule="nonzero"/></clipPath><clipPath id="8a621a525f"><path d="M 138.132812 14.597656 L 146.371094 6.984375 L 157.539062 19.070312 L 149.300781 26.683594 Z M 138.132812 14.597656 " clip-rule="nonzero"/></clipPath><clipPath id="bbc3efa35e"><path d="M 138.132812 14.597656 L 146.371094 6.984375 L 157.539062 19.070312 L 149.300781 26.683594 Z M 138.132812 14.597656 " clip-rule="nonzero"/></clipPath><clipPath id="e6e9eb41df"><path d="M 146 7 L 158 7 L 158 19 L 146 19 Z M 146 7 " clip-rule="nonzero"/></clipPath><clipPath id="40161c4cbf"><path d="M 143.96875 9.207031 L 152.207031 1.589844 L 163.375 13.675781 L 155.136719 21.289062 Z M 143.96875 9.207031 " clip-rule="nonzero"/></clipPath><clipPath id="6d6be1fa69"><path d="M 143.96875 9.207031 L 152.207031 1.589844 L 163.375 13.675781 L 155.136719 21.289062 Z M 143.96875 9.207031 " clip-rule="nonzero"/></clipPath></defs><g transform="matrix(1, 0, 0, 1, 34, 9)"><g clip-path="url(#36b8cddbb1)"><g fill="#ffffff" fill-opacity="1"><g transform="translate(0.53361, 50.577491)"><g><path d="M 25.34375 -9.890625 L 9.453125 -9.890625 L 5.890625 0 L 0.734375 0 L 15.21875 -37.921875 L 19.59375 -37.921875 L 34.09375 0 L 28.96875 0 Z M 10.96875 -14.015625 L 23.859375 -14.015625 L 17.40625 -31.75 Z M 10.96875 -14.015625 "/></g></g></g><g fill="#ffffff" fill-opacity="1"><g transform="translate(35.330749, 50.577491)"><g><path d="M 16.78125 -23.390625 L 25.859375 -37.921875 L 31.75 -37.921875 L 19.765625 -19.125 L 32.03125 0 L 26.09375 0 L 16.78125 -14.796875 L 7.390625 0 L 1.484375 0 L 13.78125 -19.125 L 1.765625 -37.921875 L 7.625 -37.921875 Z M 16.78125 -23.390625 "/></g></g></g><g fill="#ffffff" fill-opacity="1"><g transform="translate(68.773508, 50.577491)"><g><path d="M 9.765625 0 L 4.765625 0 L 4.765625 -37.921875 L 9.765625 -37.921875 Z M 9.765625 0 "/></g></g></g><g fill="#ffffff" fill-opacity="1"><g transform="translate(83.280997, 50.577491)"><g><path d="M 15.578125 -16.90625 C 11.285156 -18.132812 8.160156 -19.644531 6.203125 -21.4375 C 4.253906 -23.238281 3.28125 -25.460938 3.28125 -28.109375 C 3.28125 -31.085938 4.472656 -33.550781 6.859375 -35.5 C 9.242188 -37.457031 12.347656 -38.4375 16.171875 -38.4375 C 18.773438 -38.4375 21.097656 -37.929688 23.140625 -36.921875 C 25.179688 -35.921875 26.757812 -34.535156 27.875 -32.765625 C 29 -30.992188 29.5625 -29.054688 29.5625 -26.953125 L 24.53125 -26.953125 C 24.53125 -29.242188 23.800781 -31.046875 22.34375 -32.359375 C 20.882812 -33.671875 18.828125 -34.328125 16.171875 -34.328125 C 13.703125 -34.328125 11.773438 -33.785156 10.390625 -32.703125 C 9.015625 -31.617188 8.328125 -30.113281 8.328125 -28.1875 C 8.328125 -26.632812 8.984375 -25.320312 10.296875 -24.25 C 11.609375 -23.1875 13.835938 -22.210938 16.984375 -21.328125 C 20.140625 -20.441406 22.609375 -19.460938 24.390625 -18.390625 C 26.171875 -17.328125 27.488281 -16.082031 28.34375 -14.65625 C 29.207031 -13.238281 29.640625 -11.566406 29.640625 -9.640625 C 29.640625 -6.566406 28.441406 -4.101562 26.046875 -2.25 C 23.648438 -0.40625 20.445312 0.515625 16.4375 0.515625 C 13.832031 0.515625 11.398438 0.0195312 9.140625 -0.96875 C 6.878906 -1.96875 5.132812 -3.335938 3.90625 -5.078125 C 2.6875 -6.816406 2.078125 -8.785156 2.078125 -10.984375 L 7.109375 -10.984375 C 7.109375 -8.691406 7.953125 -6.878906 9.640625 -5.546875 C 11.335938 -4.222656 13.601562 -3.5625 16.4375 -3.5625 C 19.070312 -3.5625 21.09375 -4.097656 22.5 -5.171875 C 23.90625 -6.253906 24.609375 -7.722656 24.609375 -9.578125 C 24.609375 -11.441406 23.957031 -12.878906 22.65625 -13.890625 C 21.351562 -14.910156 18.992188 -15.914062 15.578125 -16.90625 Z M 15.578125 -16.90625 "/></g></g></g></g></g><g clip-path="url(#b5389dce26)"><g clip-path="url(#8a621a525f)"><g clip-path="url(#bbc3efa35e)"><path fill="#18cb96" d="M 151.914062 13.257812 L 142.058594 12.820312 C 140.15625 12.734375 139.835938 16.441406 142.089844 16.503906 L 148.222656 16.667969 L 147.753906 22.839844 C 147.609375 24.71875 151.277344 24.917969 151.378906 23.007812 Z M 151.914062 13.257812 " fill-opacity="1" fill-rule="nonzero"/></g></g></g><g clip-path="url(#e6e9eb41df)"><g clip-path="url(#40161c4cbf)"><g clip-path="url(#6d6be1fa69)"><path fill="#18cb96" d="M 157.75 7.863281 L 147.894531 7.425781 C 145.992188 7.339844 145.671875 11.046875 147.925781 11.109375 L 154.058594 11.277344 L 153.589844 17.445312 C 153.445312 19.324219 157.113281 19.523438 157.214844 17.613281 Z M 157.75 7.863281 " fill-opacity="1" fill-rule="nonzero"/></g></g></g></svg>