<svg xmlns="http://www.w3.org/2000/svg" xmlns:xlink="http://www.w3.org/1999/xlink" width="250" zoomAndPan="magnify" viewBox="0 0 187.5 74.999997" height="100" preserveAspectRatio="xMidYMid meet" version="1.0"><defs><g/><clipPath id="a6fa83e983"><path d="M 99 9 L 110 9 L 110 20 L 99 20 Z M 99 9 " clip-rule="nonzero"/></clipPath><clipPath id="9d4d0130e9"><path d="M 97.851562 10.648438 L 104.847656 4.183594 L 114.542969 14.675781 L 107.550781 21.140625 Z M 97.851562 10.648438 " clip-rule="nonzero"/></clipPath><clipPath id="f6d0718ded"><path d="M 97.851562 10.648438 L 104.847656 4.183594 L 114.542969 14.675781 L 107.550781 21.140625 Z M 97.851562 10.648438 " clip-rule="nonzero"/></clipPath><clipPath id="432857e5b4"><path d="M 104 4 L 115 4 L 115 15 L 104 15 Z M 104 4 " clip-rule="nonzero"/></clipPath><clipPath id="cec2281a51"><path d="M 102.925781 5.957031 L 109.917969 -0.507812 L 119.617188 9.984375 L 112.621094 16.449219 Z M 102.925781 5.957031 " clip-rule="nonzero"/></clipPath><clipPath id="96578fb1a9"><path d="M 102.925781 5.957031 L 109.917969 -0.507812 L 119.617188 9.984375 L 112.621094 16.449219 Z M 102.925781 5.957031 " clip-rule="nonzero"/></clipPath><clipPath id="bfc10a9362"><path d="M 107 23 L 157.101562 23 L 157.101562 58 L 107 58 Z M 107 23 " clip-rule="nonzero"/></clipPath><clipPath id="2919befaa9"><rect x="0" width="51" y="0" height="35"/></clipPath><clipPath id="7051b19780"><rect x="0" width="158" y="0" height="66"/></clipPath></defs><g transform="matrix(1, 0, 0, 1, 15, 7)"><g clip-path="url(#7051b19780)"><g fill="#ffffff" fill-opacity="1"><g transform="translate(1.826397, 50.977241)"><g><path d="M -0.0625 0 L 12.6875 -33.203125 L 17.40625 -33.203125 L 31 0 L 26 0 L 22.125 -10.046875 L 8.25 -10.046875 L 4.59375 0 Z M 9.515625 -13.625 L 20.765625 -13.625 L 17.296875 -22.828125 C 16.242188 -25.617188 15.457031 -27.910156 14.9375 -29.703125 C 14.519531 -27.578125 13.925781 -25.46875 13.15625 -23.375 Z M 9.515625 -13.625 "/></g></g></g><g fill="#ffffff" fill-opacity="1"><g transform="translate(32.747921, 50.977241)"><g><path d="M 0.203125 0 L 13.046875 -17.296875 L 1.71875 -33.203125 L 6.953125 -33.203125 L 12.96875 -24.6875 C 14.226562 -22.914062 15.117188 -21.554688 15.640625 -20.609375 C 16.378906 -21.816406 17.257812 -23.078125 18.28125 -24.390625 L 24.953125 -33.203125 L 29.734375 -33.203125 L 18.0625 -17.546875 L 30.640625 0 L 25.203125 0 L 16.84375 -11.84375 C 16.375 -12.519531 15.890625 -13.257812 15.390625 -14.0625 C 14.648438 -12.851562 14.125 -12.023438 13.8125 -11.578125 L 5.484375 0 Z M 0.203125 0 "/></g></g></g><g fill="#ffffff" fill-opacity="1"><g transform="translate(63.669446, 50.977241)"><g><path d="M 4.328125 0 L 4.328125 -33.203125 L 8.71875 -33.203125 L 8.71875 0 Z M 4.328125 0 "/></g></g></g><g fill="#ffffff" fill-opacity="1"><g transform="translate(76.549649, 50.977241)"><g><path d="M 2.078125 -10.671875 L 6.234375 -11.03125 C 6.421875 -9.363281 6.875 -8 7.59375 -6.9375 C 8.3125 -5.875 9.425781 -5.015625 10.9375 -4.359375 C 12.445312 -3.703125 14.144531 -3.375 16.03125 -3.375 C 17.707031 -3.375 19.1875 -3.625 20.46875 -4.125 C 21.75 -4.625 22.703125 -5.304688 23.328125 -6.171875 C 23.960938 -7.035156 24.28125 -7.984375 24.28125 -9.015625 C 24.28125 -10.054688 23.976562 -10.960938 23.375 -11.734375 C 22.769531 -12.515625 21.769531 -13.171875 20.375 -13.703125 C 19.488281 -14.046875 17.519531 -14.582031 14.46875 -15.3125 C 11.414062 -16.050781 9.28125 -16.742188 8.0625 -17.390625 C 6.476562 -18.222656 5.296875 -19.253906 4.515625 -20.484375 C 3.734375 -21.710938 3.34375 -23.085938 3.34375 -24.609375 C 3.34375 -26.285156 3.816406 -27.851562 4.765625 -29.3125 C 5.722656 -30.769531 7.113281 -31.875 8.9375 -32.625 C 10.769531 -33.382812 12.800781 -33.765625 15.03125 -33.765625 C 17.5 -33.765625 19.671875 -33.367188 21.546875 -32.578125 C 23.421875 -31.785156 24.863281 -30.617188 25.875 -29.078125 C 26.894531 -27.535156 27.441406 -25.789062 27.515625 -23.84375 L 23.296875 -23.53125 C 23.078125 -25.625 22.3125 -27.207031 21 -28.28125 C 19.695312 -29.351562 17.769531 -29.890625 15.21875 -29.890625 C 12.5625 -29.890625 10.625 -29.398438 9.40625 -28.421875 C 8.1875 -27.453125 7.578125 -26.28125 7.578125 -24.90625 C 7.578125 -23.71875 8.007812 -22.738281 8.875 -21.96875 C 9.71875 -21.195312 11.925781 -20.40625 15.5 -19.59375 C 19.070312 -18.789062 21.519531 -18.085938 22.84375 -17.484375 C 24.78125 -16.585938 26.207031 -15.457031 27.125 -14.09375 C 28.050781 -12.726562 28.515625 -11.15625 28.515625 -9.375 C 28.515625 -7.601562 28.003906 -5.9375 26.984375 -4.375 C 25.972656 -2.8125 24.519531 -1.597656 22.625 -0.734375 C 20.738281 0.128906 18.609375 0.5625 16.234375 0.5625 C 13.234375 0.5625 10.71875 0.125 8.6875 -0.75 C 6.65625 -1.625 5.0625 -2.941406 3.90625 -4.703125 C 2.75 -6.460938 2.140625 -8.453125 2.078125 -10.671875 Z M 2.078125 -10.671875 "/></g></g></g><g clip-path="url(#a6fa83e983)"><g clip-path="url(#9d4d0130e9)"><g clip-path="url(#f6d0718ded)"><path fill="#18cb96" d="M 109.824219 9.480469 L 101.265625 9.097656 C 99.609375 9.027344 99.332031 12.246094 101.289062 12.300781 L 106.617188 12.445312 L 106.210938 17.804688 C 106.085938 19.4375 109.269531 19.609375 109.359375 17.949219 Z M 109.824219 9.480469 " fill-opacity="1" fill-rule="nonzero"/></g></g></g><g clip-path="url(#432857e5b4)"><g clip-path="url(#cec2281a51)"><g clip-path="url(#96578fb1a9)"><path fill="#18cb96" d="M 114.898438 4.792969 L 106.335938 4.410156 C 104.683594 4.335938 104.402344 7.558594 106.363281 7.613281 L 111.6875 7.753906 L 111.28125 13.117188 C 111.160156 14.746094 114.34375 14.921875 114.433594 13.261719 Z M 114.898438 4.792969 " fill-opacity="1" fill-rule="nonzero"/></g></g></g><g clip-path="url(#bfc10a9362)"><g transform="matrix(1, 0, 0, 1, 107, 23)"><g clip-path="url(#2919befaa9)"><g fill="#18cb96" fill-opacity="1"><g transform="translate(1.837491, 25.91333)"><g><path d="M 5.859375 -9.171875 L 7.0625 -9.171875 C 8.1875 -9.171875 9.03125 -9.394531 9.59375 -9.84375 C 10.15625 -10.289062 10.4375 -10.941406 10.4375 -11.796875 C 10.4375 -12.648438 10.203125 -13.28125 9.734375 -13.6875 C 9.265625 -14.101562 8.53125 -14.3125 7.53125 -14.3125 L 5.859375 -14.3125 Z M 14.140625 -11.921875 C 14.140625 -10.054688 13.554688 -8.628906 12.390625 -7.640625 C 11.234375 -6.648438 9.578125 -6.15625 7.421875 -6.15625 L 5.859375 -6.15625 L 5.859375 0 L 2.1875 0 L 2.1875 -17.328125 L 7.71875 -17.328125 C 9.8125 -17.328125 11.40625 -16.875 12.5 -15.96875 C 13.59375 -15.0625 14.140625 -13.710938 14.140625 -11.921875 Z M 14.140625 -11.921875 "/></g></g></g><g fill="#18cb96" fill-opacity="1"><g transform="translate(17.073805, 25.91333)"><g><path d="M 12.78125 0 L 11.53125 -4.125 L 5.21875 -4.125 L 3.953125 0 L 0 0 L 6.109375 -17.390625 L 10.609375 -17.390625 L 16.734375 0 Z M 10.65625 -7.203125 C 9.488281 -10.941406 8.832031 -13.054688 8.6875 -13.546875 C 8.539062 -14.035156 8.4375 -14.421875 8.375 -14.703125 C 8.113281 -13.691406 7.367188 -11.191406 6.140625 -7.203125 Z M 10.65625 -7.203125 "/></g></g></g><g fill="#18cb96" fill-opacity="1"><g transform="translate(33.814803, 25.91333)"><g><path d="M 7.578125 -10.1875 L 11.1875 -17.328125 L 15.140625 -17.328125 L 9.390625 -6.734375 L 9.390625 0 L 5.75 0 L 5.75 -6.625 L 0 -17.328125 L 3.984375 -17.328125 Z M 7.578125 -10.1875 "/></g></g></g></g></g></g></g></g></svg>