<svg xmlns="http://www.w3.org/2000/svg" xmlns:xlink="http://www.w3.org/1999/xlink" width="500" zoomAndPan="magnify" viewBox="0 0 375 374.999991" height="500" preserveAspectRatio="xMidYMid meet" version="1.0"><defs><clipPath id="ecb8bb4a11"><path d="M 26.441406 26.441406 L 348.191406 26.441406 L 348.191406 348.191406 L 26.441406 348.191406 Z M 26.441406 26.441406 " clip-rule="nonzero"/></clipPath><clipPath id="1382576340"><path d="M 214.34375 73.25 L 288.851562 73.25 L 288.851562 148 L 214.34375 148 Z M 214.34375 73.25 " clip-rule="nonzero"/></clipPath><clipPath id="0eda7b30a4"><path d="M 86.136719 207 L 149.921875 207 L 149.921875 272 L 86.136719 272 Z M 86.136719 207 " clip-rule="nonzero"/></clipPath></defs><g clip-path="url(#ecb8bb4a11)"><rect x="-37.5" width="450" fill="#ffffff" y="-37.499999" height="449.999989" fill-opacity="1"/><rect x="-37.5" width="450" fill="#ffffff" y="-37.499999" height="449.999989" fill-opacity="1"/></g><g clip-path="url(#1382576340)"><path fill="#ffffff" d="M 252.0625 147.785156 C 231.585938 147.785156 214.925781 131.125 214.925781 110.648438 C 214.925781 90.171875 231.585938 73.515625 252.0625 73.515625 C 272.535156 73.515625 289.195312 90.171875 289.195312 110.648438 C 289.195312 131.125 272.535156 147.785156 252.0625 147.785156 Z M 252.0625 83.761719 C 237.234375 83.761719 225.171875 95.824219 225.171875 110.648438 C 225.171875 125.476562 237.234375 137.539062 252.0625 137.539062 C 266.886719 137.539062 278.949219 125.476562 278.949219 110.648438 C 278.949219 95.824219 266.886719 83.761719 252.0625 83.761719 Z M 252.0625 83.761719 " fill-opacity="1" fill-rule="nonzero"/></g><g clip-path="url(#0eda7b30a4)"><path fill="#ffffff" d="M 117.917969 207.574219 C 135.488281 207.574219 149.785156 221.871094 149.785156 239.441406 C 149.785156 257.011719 135.488281 271.308594 117.917969 271.308594 C 100.347656 271.308594 86.050781 257.011719 86.050781 239.441406 C 86.050781 221.871094 100.347656 207.574219 117.917969 207.574219 Z M 117.917969 261.0625 C 129.84375 261.0625 139.539062 251.363281 139.539062 239.445312 C 139.539062 227.519531 129.84375 217.824219 117.917969 217.824219 C 105.996094 217.824219 96.296875 227.519531 96.296875 239.445312 C 96.296875 251.359375 105.996094 261.0625 117.917969 261.0625 Z M 117.917969 261.0625 " fill-opacity="1" fill-rule="nonzero"/></g><path fill="#d7d98a" d="M 154.503906 126.140625 C 145.023438 126.140625 137.316406 118.429688 137.316406 108.957031 C 137.316406 99.476562 145.023438 91.765625 154.503906 91.765625 C 163.980469 91.765625 171.6875 99.476562 171.6875 108.957031 C 171.6875 118.429688 163.980469 126.140625 154.503906 126.140625 Z M 154.503906 102.015625 C 150.675781 102.015625 147.5625 105.125 147.5625 108.957031 C 147.5625 112.78125 150.675781 115.890625 154.503906 115.890625 C 158.328125 115.890625 161.441406 112.78125 161.441406 108.957031 C 161.441406 105.125 158.328125 102.015625 154.503906 102.015625 Z M 154.503906 102.015625 " fill-opacity="1" fill-rule="nonzero"/><path fill="#d7d98a" d="M 244.25 200.636719 C 244.25 191.160156 251.960938 183.453125 261.433594 183.453125 C 270.914062 183.453125 278.621094 191.160156 278.621094 200.636719 C 278.621094 210.109375 270.914062 217.824219 261.433594 217.824219 C 251.960938 217.824219 244.25 210.109375 244.25 200.636719 Z M 268.375 200.636719 C 268.375 196.8125 265.265625 193.695312 261.433594 193.695312 C 257.609375 193.695312 254.496094 196.8125 254.496094 200.636719 C 254.496094 204.464844 257.609375 207.578125 261.433594 207.578125 C 265.265625 207.578125 268.375 204.464844 268.375 200.636719 Z M 268.375 200.636719 " fill-opacity="1" fill-rule="nonzero"/><path fill="#d7d98a" d="M 252.0625 266.84375 C 261.535156 266.84375 269.25 274.554688 269.25 284.027344 C 269.25 293.507812 261.535156 301.214844 252.0625 301.214844 C 242.585938 301.214844 234.875 293.507812 234.875 284.027344 C 234.875 274.554688 242.585938 266.84375 252.0625 266.84375 Z M 252.0625 290.96875 C 255.886719 290.96875 259.003906 287.859375 259.003906 284.027344 C 259.003906 280.203125 255.886719 277.089844 252.0625 277.089844 C 248.230469 277.089844 245.121094 280.203125 245.121094 284.027344 C 245.121094 287.859375 248.230469 290.96875 252.0625 290.96875 Z M 252.0625 290.96875 " fill-opacity="1" fill-rule="nonzero"/><path fill="#ffffff" d="M 144.933594 215.964844 C 143.125 213.785156 143.429688 210.558594 145.613281 208.757812 L 161.167969 195.867188 C 159.65625 192.789062 158.78125 189.335938 158.78125 185.679688 C 158.78125 177.386719 163.164062 170.117188 169.71875 166.007812 L 159.054688 134.421875 C 158.148438 131.742188 159.585938 128.832031 162.269531 127.925781 C 164.957031 127.023438 167.859375 128.457031 168.761719 131.140625 L 179.386719 162.617188 C 180.25 162.519531 181.117188 162.460938 182 162.460938 C 186.371094 162.460938 190.453125 163.699219 193.949219 165.808594 L 213.464844 141.863281 C 215.257812 139.671875 218.480469 139.34375 220.675781 141.128906 C 222.871094 142.914062 223.195312 146.144531 221.410156 148.339844 L 201.378906 172.917969 C 203.597656 176.273438 204.945312 180.234375 205.160156 184.5 L 237.226562 191.574219 C 239.988281 192.179688 241.734375 194.917969 241.125 197.679688 C 240.597656 200.074219 238.480469 201.695312 236.128906 201.695312 C 235.761719 201.695312 235.390625 201.660156 235.015625 201.578125 L 203.425781 194.609375 C 202.015625 197.980469 199.828125 200.941406 197.085938 203.289062 L 240.203125 260.128906 C 241.914062 262.382812 241.476562 265.601562 239.21875 267.3125 C 238.292969 268.011719 237.199219 268.351562 236.121094 268.351562 C 234.574219 268.351562 233.042969 267.65625 232.039062 266.324219 L 187.886719 208.113281 C 186.003906 208.609375 184.035156 208.898438 182 208.898438 C 176.558594 208.898438 171.558594 207.003906 167.59375 203.851562 L 152.144531 216.644531 C 151.1875 217.441406 150.027344 217.824219 148.878906 217.824219 C 147.40625 217.824219 145.945312 217.191406 144.933594 215.964844 Z M 182 198.648438 C 189.152344 198.648438 194.96875 192.832031 194.96875 185.679688 C 194.96875 178.523438 189.152344 172.707031 182 172.707031 C 174.851562 172.707031 169.027344 178.523438 169.027344 185.679688 C 169.027344 192.832031 174.851562 198.648438 182 198.648438 Z M 182 198.648438 " fill-opacity="1" fill-rule="nonzero"/></svg>