<svg xmlns="http://www.w3.org/2000/svg" xmlns:xlink="http://www.w3.org/1999/xlink" width="300" zoomAndPan="magnify" viewBox="0 0 224.87999 74.999997" height="100" preserveAspectRatio="xMidYMid meet" version="1.0"><defs><g/><clipPath id="b99ae3a884"><path d="M 0.246094 0.589844 L 38.625 0.589844 L 38.625 44.3125 L 0.246094 44.3125 Z M 0.246094 0.589844 " clip-rule="nonzero"/></clipPath><clipPath id="9e889b0b61"><path d="M 47 9 L 215.203125 9 L 215.203125 36 L 47 36 Z M 47 9 " clip-rule="nonzero"/></clipPath><clipPath id="184879acfe"><rect x="0" width="169" y="0" height="27"/></clipPath><clipPath id="77f230b3d6"><rect x="0" width="216" y="0" height="45"/></clipPath></defs><g transform="matrix(1, 0, 0, 1, 5, 15)"><g clip-path="url(#77f230b3d6)"><g clip-path="url(#b99ae3a884)"><path fill="#ffffff" d="M 38.40625 15.875 L 38.40625 33.296875 L 19.050781 44.40625 L 12.230469 40.75 L 12.230469 22.132812 L 6.023438 18.507812 L 6.023438 37.449219 L 0.257812 34.375 L 0.257812 11.84375 L 19.527344 0.589844 L 25.183594 3.953125 L 8.84375 13.496094 L 15.101562 17.152344 L 31.386719 7.644531 L 37.042969 11.003906 L 17.992188 22.132812 L 17.992188 37.304688 L 18.957031 37.828125 L 32.644531 29.964844 L 32.644531 25.679688 L 21.15625 32.117188 L 21.15625 25.523438 Z M 38.40625 15.875 " fill-opacity="1" fill-rule="nonzero"/></g><g clip-path="url(#9e889b0b61)"><g transform="matrix(1, 0, 0, 1, 47, 9)"><g clip-path="url(#184879acfe)"><g fill="#ffffff" fill-opacity="1"><g transform="translate(0.378756, 20.192177)"><g><path d="M 12.609375 0 L 9.796875 0 L 9.796875 -5.75 L 4.5 -5.75 L 4.5 0 L 1.671875 0 L 1.671875 -13.34375 L 4.5 -13.34375 L 4.5 -8.109375 L 9.796875 -8.109375 L 9.796875 -13.34375 L 12.609375 -13.34375 Z M 12.609375 0 "/></g></g></g><g fill="#ffffff" fill-opacity="1"><g transform="translate(14.680923, 20.192177)"><g><path d="M 13.78125 -6.6875 C 13.78125 -4.476562 13.234375 -2.78125 12.140625 -1.59375 C 11.046875 -0.40625 9.476562 0.1875 7.4375 0.1875 C 5.394531 0.1875 3.820312 -0.40625 2.71875 -1.59375 C 1.625 -2.78125 1.078125 -4.484375 1.078125 -6.703125 C 1.078125 -8.921875 1.625 -10.613281 2.71875 -11.78125 C 3.820312 -12.957031 5.398438 -13.546875 7.453125 -13.546875 C 9.503906 -13.546875 11.070312 -12.957031 12.15625 -11.78125 C 13.238281 -10.601562 13.78125 -8.90625 13.78125 -6.6875 Z M 4.046875 -6.6875 C 4.046875 -5.195312 4.328125 -4.070312 4.890625 -3.3125 C 5.460938 -2.5625 6.3125 -2.1875 7.4375 -2.1875 C 9.695312 -2.1875 10.828125 -3.6875 10.828125 -6.6875 C 10.828125 -9.695312 9.703125 -11.203125 7.453125 -11.203125 C 6.328125 -11.203125 5.476562 -10.820312 4.90625 -10.0625 C 4.332031 -9.300781 4.046875 -8.175781 4.046875 -6.6875 Z M 4.046875 -6.6875 "/></g></g></g><g fill="#ffffff" fill-opacity="1"><g transform="translate(29.558093, 20.192177)"><g><path d="M 12.53125 -13.34375 L 12.53125 -4.703125 C 12.53125 -3.722656 12.3125 -2.859375 11.875 -2.109375 C 11.4375 -1.367188 10.800781 -0.800781 9.96875 -0.40625 C 9.132812 -0.0078125 8.148438 0.1875 7.015625 0.1875 C 5.296875 0.1875 3.960938 -0.25 3.015625 -1.125 C 2.066406 -2.007812 1.59375 -3.21875 1.59375 -4.75 L 1.59375 -13.34375 L 4.40625 -13.34375 L 4.40625 -5.171875 C 4.40625 -4.140625 4.609375 -3.382812 5.015625 -2.90625 C 5.429688 -2.425781 6.117188 -2.1875 7.078125 -2.1875 C 8.003906 -2.1875 8.675781 -2.425781 9.09375 -2.90625 C 9.507812 -3.394531 9.71875 -4.15625 9.71875 -5.1875 L 9.71875 -13.34375 Z M 12.53125 -13.34375 "/></g></g></g><g fill="#ffffff" fill-opacity="1"><g transform="translate(43.68684, 20.192177)"><g><path d="M 9.546875 -3.703125 C 9.546875 -2.492188 9.113281 -1.539062 8.25 -0.84375 C 7.382812 -0.15625 6.179688 0.1875 4.640625 0.1875 C 3.210938 0.1875 1.953125 -0.0820312 0.859375 -0.625 L 0.859375 -3.25 C 1.753906 -2.84375 2.515625 -2.554688 3.140625 -2.390625 C 3.765625 -2.234375 4.335938 -2.15625 4.859375 -2.15625 C 5.472656 -2.15625 5.945312 -2.269531 6.28125 -2.5 C 6.613281 -2.738281 6.78125 -3.09375 6.78125 -3.5625 C 6.78125 -3.820312 6.707031 -4.054688 6.5625 -4.265625 C 6.414062 -4.472656 6.203125 -4.671875 5.921875 -4.859375 C 5.640625 -5.046875 5.0625 -5.34375 4.1875 -5.75 C 3.375 -6.132812 2.765625 -6.503906 2.359375 -6.859375 C 1.953125 -7.210938 1.625 -7.625 1.375 -8.09375 C 1.132812 -8.5625 1.015625 -9.109375 1.015625 -9.734375 C 1.015625 -10.910156 1.410156 -11.835938 2.203125 -12.515625 C 3.003906 -13.191406 4.113281 -13.53125 5.53125 -13.53125 C 6.21875 -13.53125 6.875 -13.445312 7.5 -13.28125 C 8.132812 -13.125 8.796875 -12.894531 9.484375 -12.59375 L 8.578125 -10.390625 C 7.867188 -10.679688 7.28125 -10.882812 6.8125 -11 C 6.34375 -11.113281 5.882812 -11.171875 5.4375 -11.171875 C 4.90625 -11.171875 4.492188 -11.046875 4.203125 -10.796875 C 3.921875 -10.546875 3.78125 -10.222656 3.78125 -9.828125 C 3.78125 -9.578125 3.835938 -9.359375 3.953125 -9.171875 C 4.066406 -8.984375 4.25 -8.800781 4.5 -8.625 C 4.75 -8.457031 5.347656 -8.148438 6.296875 -7.703125 C 7.546875 -7.109375 8.398438 -6.507812 8.859375 -5.90625 C 9.316406 -5.3125 9.546875 -4.578125 9.546875 -3.703125 Z M 9.546875 -3.703125 "/></g></g></g><g fill="#ffffff" fill-opacity="1"><g transform="translate(53.982207, 20.192177)"><g><path d="M 9.546875 -3.703125 C 9.546875 -2.492188 9.113281 -1.539062 8.25 -0.84375 C 7.382812 -0.15625 6.179688 0.1875 4.640625 0.1875 C 3.210938 0.1875 1.953125 -0.0820312 0.859375 -0.625 L 0.859375 -3.25 C 1.753906 -2.84375 2.515625 -2.554688 3.140625 -2.390625 C 3.765625 -2.234375 4.335938 -2.15625 4.859375 -2.15625 C 5.472656 -2.15625 5.945312 -2.269531 6.28125 -2.5 C 6.613281 -2.738281 6.78125 -3.09375 6.78125 -3.5625 C 6.78125 -3.820312 6.707031 -4.054688 6.5625 -4.265625 C 6.414062 -4.472656 6.203125 -4.671875 5.921875 -4.859375 C 5.640625 -5.046875 5.0625 -5.34375 4.1875 -5.75 C 3.375 -6.132812 2.765625 -6.503906 2.359375 -6.859375 C 1.953125 -7.210938 1.625 -7.625 1.375 -8.09375 C 1.132812 -8.5625 1.015625 -9.109375 1.015625 -9.734375 C 1.015625 -10.910156 1.410156 -11.835938 2.203125 -12.515625 C 3.003906 -13.191406 4.113281 -13.53125 5.53125 -13.53125 C 6.21875 -13.53125 6.875 -13.445312 7.5 -13.28125 C 8.132812 -13.125 8.796875 -12.894531 9.484375 -12.59375 L 8.578125 -10.390625 C 7.867188 -10.679688 7.28125 -10.882812 6.8125 -11 C 6.34375 -11.113281 5.882812 -11.171875 5.4375 -11.171875 C 4.90625 -11.171875 4.492188 -11.046875 4.203125 -10.796875 C 3.921875 -10.546875 3.78125 -10.222656 3.78125 -9.828125 C 3.78125 -9.578125 3.835938 -9.359375 3.953125 -9.171875 C 4.066406 -8.984375 4.25 -8.800781 4.5 -8.625 C 4.75 -8.457031 5.347656 -8.148438 6.296875 -7.703125 C 7.546875 -7.109375 8.398438 -6.507812 8.859375 -5.90625 C 9.316406 -5.3125 9.546875 -4.578125 9.546875 -3.703125 Z M 9.546875 -3.703125 "/></g></g></g><g fill="#ffffff" fill-opacity="1"><g transform="translate(64.277573, 20.192177)"><g><path d="M 9.359375 0 L 1.671875 0 L 1.671875 -13.34375 L 9.359375 -13.34375 L 9.359375 -11.015625 L 4.5 -11.015625 L 4.5 -8.09375 L 9.03125 -8.09375 L 9.03125 -5.78125 L 4.5 -5.78125 L 4.5 -2.34375 L 9.359375 -2.34375 Z M 9.359375 0 "/></g></g></g><g fill="#ffffff" fill-opacity="1"><g transform="translate(74.746359, 20.192177)"><g><path d="M 13.515625 0 L 9.921875 0 L 4.109375 -10.09375 L 4.03125 -10.09375 C 4.144531 -8.3125 4.203125 -7.039062 4.203125 -6.28125 L 4.203125 0 L 1.671875 0 L 1.671875 -13.34375 L 5.25 -13.34375 L 11.046875 -3.34375 L 11.109375 -3.34375 C 11.015625 -5.082031 10.96875 -6.3125 10.96875 -7.03125 L 10.96875 -13.34375 L 13.515625 -13.34375 Z M 13.515625 0 "/></g></g></g><g fill="#ffffff" fill-opacity="1"><g transform="translate(89.942983, 20.192177)"><g><path d="M 1.671875 0 L 1.671875 -13.34375 L 4.5 -13.34375 L 4.5 0 Z M 1.671875 0 "/></g></g></g><g fill="#ffffff" fill-opacity="1"><g transform="translate(96.131155, 20.192177)"><g/></g></g><g fill="#ffffff" fill-opacity="1"><g transform="translate(100.986771, 20.192177)"><g><path d="M 6.75 -7.484375 L 12.03125 -7.484375 L 12.03125 -0.578125 C 11.175781 -0.296875 10.367188 -0.0976562 9.609375 0.015625 C 8.859375 0.128906 8.085938 0.1875 7.296875 0.1875 C 5.273438 0.1875 3.734375 -0.398438 2.671875 -1.578125 C 1.609375 -2.765625 1.078125 -4.46875 1.078125 -6.6875 C 1.078125 -8.84375 1.691406 -10.519531 2.921875 -11.71875 C 4.160156 -12.925781 5.875 -13.53125 8.0625 -13.53125 C 9.425781 -13.53125 10.742188 -13.253906 12.015625 -12.703125 L 11.078125 -10.453125 C 10.109375 -10.929688 9.09375 -11.171875 8.03125 -11.171875 C 6.8125 -11.171875 5.832031 -10.757812 5.09375 -9.9375 C 4.363281 -9.125 4 -8.023438 4 -6.640625 C 4 -5.191406 4.296875 -4.082031 4.890625 -3.3125 C 5.484375 -2.550781 6.34375 -2.171875 7.46875 -2.171875 C 8.0625 -2.171875 8.660156 -2.234375 9.265625 -2.359375 L 9.265625 -5.140625 L 6.75 -5.140625 Z M 6.75 -7.484375 "/></g></g></g><g fill="#ffffff" fill-opacity="1"><g transform="translate(114.522262, 20.192177)"><g><path d="M 4.5 -7.421875 L 5.421875 -7.421875 C 6.316406 -7.421875 6.972656 -7.566406 7.390625 -7.859375 C 7.816406 -8.160156 8.03125 -8.628906 8.03125 -9.265625 C 8.03125 -9.898438 7.8125 -10.347656 7.375 -10.609375 C 6.945312 -10.878906 6.273438 -11.015625 5.359375 -11.015625 L 4.5 -11.015625 Z M 4.5 -5.125 L 4.5 0 L 1.671875 0 L 1.671875 -13.34375 L 5.5625 -13.34375 C 7.375 -13.34375 8.710938 -13.007812 9.578125 -12.34375 C 10.453125 -11.6875 10.890625 -10.6875 10.890625 -9.34375 C 10.890625 -8.5625 10.671875 -7.863281 10.234375 -7.25 C 9.804688 -6.632812 9.195312 -6.15625 8.40625 -5.8125 C 10.414062 -2.8125 11.726562 -0.875 12.34375 0 L 9.203125 0 L 6.015625 -5.125 Z M 4.5 -5.125 "/></g></g></g><g fill="#ffffff" fill-opacity="1"><g transform="translate(126.862099, 20.192177)"><g><path d="M 13.78125 -6.6875 C 13.78125 -4.476562 13.234375 -2.78125 12.140625 -1.59375 C 11.046875 -0.40625 9.476562 0.1875 7.4375 0.1875 C 5.394531 0.1875 3.820312 -0.40625 2.71875 -1.59375 C 1.625 -2.78125 1.078125 -4.484375 1.078125 -6.703125 C 1.078125 -8.921875 1.625 -10.613281 2.71875 -11.78125 C 3.820312 -12.957031 5.398438 -13.546875 7.453125 -13.546875 C 9.503906 -13.546875 11.070312 -12.957031 12.15625 -11.78125 C 13.238281 -10.601562 13.78125 -8.90625 13.78125 -6.6875 Z M 4.046875 -6.6875 C 4.046875 -5.195312 4.328125 -4.070312 4.890625 -3.3125 C 5.460938 -2.5625 6.3125 -2.1875 7.4375 -2.1875 C 9.695312 -2.1875 10.828125 -3.6875 10.828125 -6.6875 C 10.828125 -9.695312 9.703125 -11.203125 7.453125 -11.203125 C 6.328125 -11.203125 5.476562 -10.820312 4.90625 -10.0625 C 4.332031 -9.300781 4.046875 -8.175781 4.046875 -6.6875 Z M 4.046875 -6.6875 "/></g></g></g><g fill="#ffffff" fill-opacity="1"><g transform="translate(141.739268, 20.192177)"><g><path d="M 12.53125 -13.34375 L 12.53125 -4.703125 C 12.53125 -3.722656 12.3125 -2.859375 11.875 -2.109375 C 11.4375 -1.367188 10.800781 -0.800781 9.96875 -0.40625 C 9.132812 -0.0078125 8.148438 0.1875 7.015625 0.1875 C 5.296875 0.1875 3.960938 -0.25 3.015625 -1.125 C 2.066406 -2.007812 1.59375 -3.21875 1.59375 -4.75 L 1.59375 -13.34375 L 4.40625 -13.34375 L 4.40625 -5.171875 C 4.40625 -4.140625 4.609375 -3.382812 5.015625 -2.90625 C 5.429688 -2.425781 6.117188 -2.1875 7.078125 -2.1875 C 8.003906 -2.1875 8.675781 -2.425781 9.09375 -2.90625 C 9.507812 -3.394531 9.71875 -4.15625 9.71875 -5.1875 L 9.71875 -13.34375 Z M 12.53125 -13.34375 "/></g></g></g><g fill="#ffffff" fill-opacity="1"><g transform="translate(155.868016, 20.192177)"><g><path d="M 4.5 -7.0625 L 5.4375 -7.0625 C 6.3125 -7.0625 6.960938 -7.234375 7.390625 -7.578125 C 7.816406 -7.921875 8.03125 -8.421875 8.03125 -9.078125 C 8.03125 -9.742188 7.847656 -10.234375 7.484375 -10.546875 C 7.128906 -10.859375 6.566406 -11.015625 5.796875 -11.015625 L 4.5 -11.015625 Z M 10.890625 -9.171875 C 10.890625 -7.742188 10.441406 -6.648438 9.546875 -5.890625 C 8.648438 -5.128906 7.375 -4.75 5.71875 -4.75 L 4.5 -4.75 L 4.5 0 L 1.671875 0 L 1.671875 -13.34375 L 5.9375 -13.34375 C 7.5625 -13.34375 8.789062 -12.992188 9.625 -12.296875 C 10.46875 -11.597656 10.890625 -10.554688 10.890625 -9.171875 Z M 10.890625 -9.171875 "/></g></g></g></g></g></g></g></g></svg>